<svg width="28" height="20" viewBox="0 0 33 21" fill="none" xmlns="http://www.w3.org/2000/svg">
<path d="M11.7031 15.9199L13.043 20.5H16.4473L10.0762 0.59375H7.16406L0.683594 20.5H4.10156L5.45508 15.9199H11.7031ZM6.28906 13.1035L8.61328 5.22852L10.8965 13.1035H6.28906ZM32.293 14.375H28.998C28.9434 14.9766 28.8249 15.5098 28.6426 15.9746C28.4603 16.4395 28.2188 16.8268 27.918 17.1367C27.6081 17.4557 27.2344 17.6973 26.7969 17.8613C26.3594 18.0254 25.8581 18.1074 25.293 18.1074C24.819 18.1074 24.3952 18.0436 24.0215 17.916C23.6569 17.7793 23.3333 17.5833 23.0508 17.3281C22.7773 17.0911 22.5404 16.8086 22.3398 16.4805C22.1484 16.1523 21.9889 15.7878 21.8613 15.3867C21.6973 14.9036 21.5742 14.3704 21.4922 13.7871C21.4193 13.2038 21.3828 12.5794 21.3828 11.9141V9.16602C21.3828 8.62826 21.4102 8.10417 21.4648 7.59375C21.5286 7.07422 21.6198 6.58659 21.7383 6.13086C21.8932 5.61133 22.0892 5.14193 22.3262 4.72266C22.5723 4.29427 22.8776 3.94792 23.2422 3.68359C23.5065 3.46484 23.8073 3.29622 24.1445 3.17773C24.4909 3.05924 24.8783 3 25.3066 3C25.9173 3 26.4414 3.09115 26.8789 3.27344C27.3164 3.44661 27.6855 3.70182 27.9863 4.03906C28.278 4.3763 28.5059 4.78646 28.6699 5.26953C28.8431 5.74349 28.957 6.27669 29.0117 6.86914H32.293C32.1927 5.87565 31.9694 4.97331 31.623 4.16211C31.2858 3.35091 30.821 2.6582 30.2285 2.08398C29.6452 1.51888 28.9388 1.08138 28.1094 0.771484C27.2891 0.461589 26.3548 0.306641 25.3066 0.306641C24.5319 0.306641 23.8164 0.411458 23.1602 0.621094C22.513 0.830729 21.9206 1.1224 21.3828 1.49609C20.8177 1.90625 20.3164 2.40299 19.8789 2.98633C19.4505 3.56055 19.0996 4.20312 18.8262 4.91406C18.571 5.55208 18.3796 6.23112 18.252 6.95117C18.1243 7.67122 18.0605 8.41862 18.0605 9.19336V11.9141C18.0605 12.7253 18.1243 13.5046 18.252 14.252C18.3887 14.9993 18.5892 15.6921 18.8535 16.3301C19.1178 16.9772 19.4414 17.5742 19.8242 18.1211C20.2161 18.6589 20.6719 19.1191 21.1914 19.502C21.7292 19.9121 22.3398 20.2311 23.0234 20.459C23.7161 20.6777 24.4727 20.7871 25.293 20.7871C26.2956 20.7871 27.207 20.6367 28.0273 20.3359C28.8568 20.026 29.5723 19.5885 30.1738 19.0234C30.7663 18.4674 31.2448 17.7975 31.6094 17.0137C31.974 16.2207 32.2018 15.3411 32.293 14.375Z" fill="#9F5E86"/>
</svg>
