<svg width="30" height="20" viewBox="0 0 33 26" fill="none" xmlns="http://www.w3.org/2000/svg">
<path fill-rule="evenodd" clip-rule="evenodd" d="M13.1525 0.5H28.5C30.8012 0.5 32.6667 2.3655 32.6667 4.66667V21.3333C32.6667 23.6345 30.8012 25.5 28.5 25.5H13.1525C12.0208 25.5 10.9378 25.0397 10.1525 24.2249L2.12038 15.8916C0.564823 14.2777 0.564823 11.7223 2.12038 10.1084L10.1525 1.77508C10.9378 0.960308 12.0208 0.5 13.1525 0.5ZM15.1161 8.78275C15.6042 8.29467 16.3957 8.29467 16.8839 8.78275L19.3333 11.2322L21.7827 8.78275C22.2709 8.29467 23.0624 8.29467 23.5506 8.78275C24.0387 9.27092 24.0387 10.0624 23.5506 10.5506L21.1011 13L23.5506 15.4494C24.0387 15.9376 24.0387 16.7291 23.5506 17.2172C23.0624 17.7053 22.2709 17.7053 21.7827 17.2172L19.3333 14.7677L16.8839 17.2172C16.3957 17.7053 15.6042 17.7053 15.1161 17.2172C14.628 16.7291 14.628 15.9376 15.1161 15.4494L17.5656 13L15.1161 10.5506C14.628 10.0624 14.628 9.27092 15.1161 8.78275Z" fill="#2B5159"/>
</svg>
