<svg width="25" height="20" viewBox="0 0 18 20" fill="none" xmlns="http://www.w3.org/2000/svg">
<path d="M17.8354 12.2075V8.32812H0.335449V12.2075H17.8354ZM6.43652 3.38916C6.43652 4.08415 6.67008 4.65951 7.13721 5.11523C7.60433 5.57096 8.23665 5.79883 9.03418 5.79883C9.8431 5.79883 10.4811 5.57096 10.9482 5.11523C11.4154 4.65951 11.6489 4.08415 11.6489 3.38916C11.6489 2.69417 11.4154 2.11882 10.9482 1.66309C10.4811 1.20736 9.8431 0.979492 9.03418 0.979492C8.23665 0.979492 7.60433 1.20736 7.13721 1.66309C6.67008 2.11882 6.43652 2.69417 6.43652 3.38916ZM6.40234 17.249C6.40234 17.944 6.6359 18.5194 7.10303 18.9751C7.57015 19.4308 8.20247 19.6587 9 19.6587C9.80892 19.6587 10.4469 19.4308 10.9141 18.9751C11.3812 18.5194 11.6147 17.944 11.6147 17.249C11.6147 16.554 11.3812 15.9787 10.9141 15.5229C10.4469 15.0558 9.80892 14.8223 9 14.8223C8.20247 14.8223 7.57015 15.0558 7.10303 15.5229C6.6359 15.9901 6.40234 16.5654 6.40234 17.249Z" fill="#9F5E86"/>
</svg>
