<svg width="35" height="35" viewBox="0 0 46 45" fill="none" xmlns="http://www.w3.org/2000/svg">
<path fill-rule="evenodd" clip-rule="evenodd" d="M23 0C23.8284 0 24.5 0.67157 24.5 1.5V3.83333C24.5 4.66176 23.8284 5.33333 23 5.33333C22.1716 5.33333 21.5 4.66176 21.5 3.83333V1.5C21.5 0.67157 22.1716 0 23 0ZM7.0901 6.5901C7.67588 6.00431 8.62563 6.00431 9.2114 6.5901L10.8613 8.24001C11.4471 8.8258 11.4471 9.7755 10.8613 10.3613C10.2755 10.9471 9.3258 10.9471 8.74001 10.3613L7.0901 8.7114C6.50431 8.12563 6.50431 7.17588 7.0901 6.5901ZM38.91 6.59022C39.4958 7.17601 39.4958 8.12576 38.91 8.7115L37.2601 10.3615C36.6743 10.9472 35.7246 10.9472 35.1388 10.3615C34.553 9.7757 34.553 8.8259 35.1388 8.24014L36.7887 6.59022C37.3745 6.00444 38.3242 6.00444 38.91 6.59022ZM23 14.6667C18.6738 14.6667 15.1667 18.1738 15.1667 22.5C15.1667 26.8262 18.6738 30.3333 23 30.3333C27.3262 30.3333 30.8333 26.8262 30.8333 22.5C30.8333 18.1738 27.3262 14.6667 23 14.6667ZM12.1667 22.5C12.1667 16.5169 17.0169 11.6667 23 11.6667C28.9831 11.6667 33.8333 16.5169 33.8333 22.5C33.8333 28.4831 28.9831 33.3333 23 33.3333C17.0169 33.3333 12.1667 28.4831 12.1667 22.5ZM0.5 22.5C0.5 21.6716 1.17157 21 2 21H4.33333C5.16176 21 5.83333 21.6716 5.83333 22.5C5.83333 23.3284 5.16176 24 4.33333 24H2C1.17157 24 0.5 23.3284 0.5 22.5ZM40.1667 22.5C40.1667 21.6716 40.8382 21 41.6667 21H44C44.8284 21 45.5 21.6716 45.5 22.5C45.5 23.3284 44.8284 24 44 24H41.6667C40.8382 24 40.1667 23.3284 40.1667 22.5ZM35.1387 34.6387C35.7244 34.0529 36.6742 34.0529 37.26 34.6387L38.9099 36.2886C39.4957 36.8744 39.4957 37.8241 38.9099 38.4099C38.3241 38.9957 37.3744 38.9957 36.7886 38.4099L35.1387 36.76C34.5529 36.1742 34.5529 35.2244 35.1387 34.6387ZM10.8615 34.6388C11.4472 35.2246 11.4472 36.1743 10.8615 36.7601L9.2115 38.41C8.62575 38.9958 7.67601 38.9958 7.09022 38.41C6.50443 37.8242 6.50443 36.8745 7.09022 36.2887L8.74014 34.6388C9.3259 34.053 10.2757 34.053 10.8615 34.6388ZM23 39.6667C23.8284 39.6667 24.5 40.3382 24.5 41.1667V43.5C24.5 44.3284 23.8284 45 23 45C22.1716 45 21.5 44.3284 21.5 43.5V41.1667C21.5 40.3382 22.1716 39.6667 23 39.6667Z" fill="#C3A7B7"/>
</svg>
