<svg width="22" height="22" viewBox="0 0 20 27" fill="none" xmlns="http://www.w3.org/2000/svg">
<path d="M0.0878906 5.56055V6.87646C0.0878906 7.52588 0.19043 8.14111 0.395508 8.72217C0.600586 9.29183 0.908203 9.79313 1.31836 10.2261C1.71712 10.6704 2.21842 11.0179 2.82227 11.2686C3.4375 11.5192 4.15527 11.6445 4.97559 11.6445C5.7959 11.6445 6.50798 11.5192 7.11182 11.2686C7.71566 11.0179 8.21696 10.6704 8.61572 10.2261C9.01449 9.79313 9.31071 9.29183 9.50439 8.72217C9.70947 8.14111 9.81201 7.52588 9.81201 6.87646V5.56055C9.81201 4.89974 9.70947 4.27881 9.50439 3.69775C9.31071 3.1167 9.01449 2.6097 8.61572 2.17676C8.21696 1.74382 7.70996 1.40202 7.09473 1.15137C6.49089 0.889323 5.77311 0.758301 4.94141 0.758301C4.13249 0.758301 3.42041 0.889323 2.80518 1.15137C2.20133 1.40202 1.70003 1.74382 1.30127 2.17676C0.891113 2.6097 0.583496 3.1167 0.378418 3.69775C0.184733 4.27881 0.0878906 4.89974 0.0878906 5.56055ZM3.30078 6.87646V5.56055C3.30078 5.2985 3.32926 5.04785 3.38623 4.80859C3.4432 4.55794 3.54004 4.33577 3.67676 4.14209C3.80208 3.9598 3.96729 3.81738 4.17236 3.71484C4.37744 3.60091 4.63379 3.54395 4.94141 3.54395C5.26042 3.54395 5.52246 3.60091 5.72754 3.71484C5.94401 3.81738 6.12061 3.9598 6.25732 4.14209C6.38265 4.33577 6.4738 4.55794 6.53076 4.80859C6.58773 5.04785 6.61621 5.2985 6.61621 5.56055V6.87646C6.61621 7.13851 6.58773 7.39486 6.53076 7.64551C6.4738 7.88477 6.38265 8.09554 6.25732 8.27783C6.132 8.47152 5.9611 8.62533 5.74463 8.73926C5.53955 8.8418 5.2832 8.89307 4.97559 8.89307C4.66797 8.89307 4.40592 8.8418 4.18945 8.73926C3.97298 8.62533 3.80208 8.47152 3.67676 8.27783C3.54004 8.09554 3.4432 7.88477 3.38623 7.64551C3.32926 7.39486 3.30078 7.13851 3.30078 6.87646ZM10.1367 20.2407V21.5737C10.1367 22.2231 10.2393 22.8384 10.4443 23.4194C10.6494 24.0005 10.957 24.5075 11.3672 24.9404C11.766 25.3734 12.2729 25.7152 12.8882 25.9658C13.5034 26.2165 14.2212 26.3418 15.0415 26.3418C15.8618 26.3418 16.5739 26.2165 17.1777 25.9658C17.7816 25.7152 18.2886 25.3734 18.6987 24.9404C19.0975 24.5075 19.3937 24.0005 19.5874 23.4194C19.7811 22.8384 19.8779 22.2231 19.8779 21.5737V20.2407C19.8779 19.5913 19.7754 18.9761 19.5703 18.395C19.3766 17.814 19.0804 17.3013 18.6816 16.8569C18.2829 16.424 17.7759 16.0822 17.1606 15.8315C16.5568 15.5809 15.839 15.4556 15.0073 15.4556C14.1984 15.4556 13.4863 15.5809 12.8711 15.8315C12.2673 16.0822 11.766 16.424 11.3672 16.8569C10.957 17.3013 10.6494 17.814 10.4443 18.395C10.2393 18.9761 10.1367 19.5913 10.1367 20.2407ZM13.3496 21.5737V20.2407C13.3496 19.9787 13.3781 19.728 13.4351 19.4888C13.492 19.2495 13.5832 19.033 13.7085 18.8394C13.8338 18.6571 14.0047 18.5146 14.2212 18.4121C14.4377 18.2982 14.6997 18.2412 15.0073 18.2412C15.3149 18.2412 15.5713 18.2982 15.7764 18.4121C15.9928 18.5146 16.1694 18.6571 16.3062 18.8394C16.4315 19.033 16.5226 19.2495 16.5796 19.4888C16.6366 19.728 16.665 19.9787 16.665 20.2407V21.5737C16.665 21.8472 16.6479 22.1035 16.6138 22.3428C16.5796 22.582 16.5055 22.7928 16.3916 22.9751C16.2777 23.1688 16.1125 23.3226 15.896 23.4365C15.6795 23.5391 15.3947 23.5903 15.0415 23.5903C14.7567 23.5903 14.506 23.5391 14.2896 23.4365C14.0845 23.3226 13.9136 23.1688 13.7769 22.9751C13.6287 22.7928 13.5205 22.582 13.4521 22.3428C13.3838 22.0921 13.3496 21.8358 13.3496 21.5737ZM6.58203 22.6162L16.1694 5.04785L13.8452 3.93701L4.25781 21.5054L6.58203 22.6162Z" fill="#9F5E86"/>
</svg>
